<svg xmlns="http://www.w3.org/2000/svg" version="1.1" xmlns:xlink="http://www.w3.org/1999/xlink" viewBox="0 0 10.984977230181933 3.4356846717646365"><g transform="matrix(0.7408633843165184,0,0,0.7408633843165184,3.807942910824851,1.3233325837337724)"><g transform="matrix(1,0,0,1,0,0)" clip-path="url(#SvgjsClipPath12018)"><g clip-path="url(#SvgjsClipPath120162a981efd-c52c-4568-afb1-bff791e680d5)"><path d=" M -1.0247415812291736 -0.3616174268327051 C -0.766074867102235 -0.09978233061210007 -0.9578253514109358 0.21407759958650996 -1.2351221522486335 0.08797599225858066 C -1.4640694423369793 -0.016073675697429457 -1.6236291645740275 -0.5586907930587655 -2.1549668416819108 -0.3575618977528119 C -1.8201322220232279 -0.6636276080010022 -1.4143258434664143 -0.44063687624874925 -1.2168722713891142 -0.2114361155929098 C -1.2312567260943603 -0.19667145503642364 -1.2422193281384466 -0.17816810360941088 -1.2477956806232997 -0.15681320829809825 C -1.2649683115709727 -0.0912276989592003 -1.2255536383257606 -0.023931263289722504 -1.1599681289868626 -0.006758632342049542 C -1.0943826196479647 0.010413998605623087 -1.0270861839784868 -0.029000674639588886 -1.0099135530308139 -0.09458618397848684 C -0.9927409220831414 -0.16017169331738468 -1.0321555953283532 -0.22746812898686258 -1.0977411046672512 -0.24464075993453538 C -1.1214406027278772 -0.2508507888381218 -1.145330203714123 -0.2495834360006552 -1.1670653048766757 -0.2424228924689688 C -1.3048899259511713 -0.4656037271468418 -1.5917552407117421 -0.5571699696538055 -1.737690919946024 -0.5764337327832982 C -1.4902402784306654 -0.6074838773012305 -1.2123731688161075 -0.5515936171689524 -1.0247415812291734 -0.3616174268327051 Z M -1.145330203714123 -0.06290236304182117 C -1.1106681036094108 -0.053840790253934845 -1.0751188565184717 -0.07468874443026086 -1.0660572837305855 -0.10928747689309976 C -1.056995710942699 -0.14394957699781197 -1.0777802974771518 -0.17949882408875084 -1.112442397581864 -0.18856039687663723 C -1.1471044976865763 -0.19762196966452356 -1.1825903771356416 -0.17677401548819754 -1.191651949923528 -0.1421752830253587 C -1.2007135227114147 -0.10751318292064643 -1.1798655685350885 -0.07196393582970761 -1.1452668360722498 -0.06290236304182117 Z" fill="#ff8c0b" transform="matrix(1,0,0,1,0,0)" fill-rule="nonzero"></path></g><g clip-path="url(#SvgjsClipPath120162a981efd-c52c-4568-afb1-bff791e680d5)"><path d=" M -0.49251675713506415 0.5047449728594807 C -0.589912822694374 0.8596671349920092 -0.9576352484853154 0.8505421945622497 -0.9871012019564149 0.5473280281983591 C -1.011434376435774 0.2970258427987006 -0.621343173063547 -0.11245585898676647 -1.061177975306339 -0.4720038589760484 C -0.6286938195208531 -0.33506638488777946 -0.6188718350304865 0.12789760663877914 -0.7186758709809831 0.4134955685618835 C -0.7386366781710825 0.4083627895701436 -0.7601816764080154 0.40817268664452366 -0.7814098364355813 0.41400250969687025 C -0.846805242848859 0.4319355523470231 -0.8853961367497181 0.49973892915148743 -0.8673997264576918 0.5650709679228921 C -0.8494666838075391 0.6304663743361699 -0.7816633070030747 0.6690572682370287 -0.7162679005897967 0.6510608579450027 C -0.6508724941765185 0.6331278152948497 -0.6122816002756597 0.5653244384903854 -0.6302780105676857 0.49992903207710737 C -0.6367415100387654 0.4762929016583549 -0.649858611906545 0.4562687268263824 -0.6669045075704714 0.4409971251349091 C -0.542513826573122 0.2100854381484899 -0.6067052477908064 -0.0841305230693874 -0.6629757137743248 -0.22018085017142974 C -0.5123508290414165 -0.021396557614789424 -0.4217984688044254 0.24715550864438873 -0.4925167571350637 0.5046816052176072 Z M -0.8115094663254141 0.5496726309476724 C -0.8020043200444145 0.584207995768638 -0.7662016023859823 0.6046123764518506 -0.7316662375650163 0.595107230170851 C -0.6971308727440508 0.5856020838898514 -0.676726492060838 0.549799366231419 -0.6862316383418376 0.5152640014104536 C -0.6957367846228373 0.48072863658948795 -0.7314761346393963 0.46038762354814866 -0.7660114994603615 0.4698294021872752 C -0.8005468642813272 0.47933454846827483 -0.8209512449645398 0.5151372661267072 -0.8114460986835401 0.5496092633057991 Z" fill="#ff8c0b" transform="matrix(1,0,0,1,0,0)" fill-rule="nonzero"></path></g><g clip-path="url(#SvgjsClipPath120162a981efd-c52c-4568-afb1-bff791e680d5)"><path d=" M -0.9767089086891882 1.3989257673340592 C -1.3327716883754368 1.4920128332459828 -1.5087436298576777 1.169027962617613 -1.260849414849206 0.9919154035816516 C -1.056235299240219 0.8457262537798765 -0.5065843736309432 0.9787983017138723 -0.4150814987658529 0.4181214064186366 C -0.3174319626390494 0.8611245907550958 -0.7134163567054965 1.1010978505294018 -1.0106739647332939 1.1574316841547931 C -1.016250317218147 1.1375976122484404 -1.02676934576912 1.1188407902539343 -1.0424845209537064 1.1033157179949682 C -1.0907072964193116 1.055663251306223 -1.1687128635653823 1.0561701924412095 -1.2163653302541275 1.104392967906815 C -1.2640177969428728 1.15261574337242 -1.263510855807886 1.2306213105184907 -1.215288080342281 1.278273777207236 C -1.1670653048766757 1.3259262438959807 -1.0890597377306048 1.3254193027609942 -1.0414072710418598 1.2771965272953891 C -1.0241712724523135 1.2597704257802231 -1.013335405691974 1.2384155304689104 -1.0087095678352207 1.2160467528876246 C -0.7465576334052495 1.2083159005790778 -0.5238203722204897 1.0056661818681647 -0.4341551589697259 0.888879617895615 C -0.5309809157521759 1.1187140549701877 -0.7182956651297432 1.3313758610970874 -0.9766455410473152 1.3989257673340592 Z M -1.1751129953945885 1.1451383616313668 C -1.200269949218301 1.1706121536644458 -1.2000164786508078 1.2118011208821113 -1.1745426866177286 1.2369580747058238 C -1.1490688945846494 1.2621150285295366 -1.107879927366984 1.2618615579620434 -1.0827229735432715 1.2363877659289644 C -1.0575660197195589 1.210913973895885 -1.0578194902870521 1.1697250066782199 -1.0832932823201316 1.144568052854507 C -1.1087670743532108 1.1194110990307946 -1.149956041570876 1.1196645695982879 -1.1751129953945885 1.1451383616313668 Z" fill="#ff8c0b" transform="matrix(1,0,0,1,0,0)" fill-rule="nonzero"></path></g><g clip-path="url(#SvgjsClipPath120162a981efd-c52c-4568-afb1-bff791e680d5)"><path d=" M -1.9931258843374224 1.4266174268327045 C -2.2517925984643608 1.1647823306120997 -2.06004211415566 0.8509224004134898 -1.7827453133179625 0.9770240077414191 C -1.5538613908714898 1.0811370433393024 -1.394238300992568 1.6236907930587652 -0.862900623884685 1.4225618977528116 C -1.1977352435433677 1.728627608001002 -1.6035416221001813 1.505636876248749 -1.8009951941774816 1.2764361155929094 C -1.7866107394722355 1.2616714550364234 -1.7756481374281492 1.2431681036094107 -1.7700717849432959 1.221813208298098 C -1.7528991539956231 1.1562276989591997 -1.7923138272408352 1.0889312632897226 -1.8578993365797332 1.0717586323420494 C -1.9234848459186311 1.0545860013943766 -1.990781281588109 1.0940006746395885 -2.0079539125357817 1.1595861839784867 C -2.0251265434834544 1.2251716933173844 -1.9857118702382424 1.2924681289868625 -1.9201263608993444 1.3096407599345352 C -1.8964268628387186 1.3158507888381217 -1.8725372618524727 1.3145834360006545 -1.85080216068992 1.3074228924689684 C -1.7130409072572979 1.5306037271468411 -1.426175592496727 1.6221066020119324 -1.2801765456205716 1.6413703651414244 C -1.5276271871359304 1.6724205096593567 -1.8054942967504881 1.6165302495270786 -1.9931258843374222 1.4265540591908317 Z M -1.872537261852473 1.1279023630418212 C -1.9071993619571854 1.1188407902539343 -1.942748609048124 1.1396887444302606 -1.9518101818360105 1.1742874768930993 C -1.9608717546238967 1.2089495769978118 -1.940023800447571 1.2444988240887507 -1.905425067984732 1.2535603968766367 C -1.8707629678800197 1.2626219696645231 -1.8352770884309542 1.2417740154881969 -1.8262155156430677 1.2071752830253581 C -1.8171539428551813 1.1725131829206457 -1.8380018970315075 1.1369639358297072 -1.8726006294943462 1.1279023630418212 Z" fill="#ff8c0b" transform="matrix(1,0,0,1,0,0)" fill-rule="nonzero"></path></g><g clip-path="url(#SvgjsClipPath120162a981efd-c52c-4568-afb1-bff791e680d5)"><path d=" M -2.525350708431532 0.5602550271405188 C -2.427954642872222 0.2053328650079903 -2.06023221708128 0.21445780543774995 -2.0307662636101815 0.5176719718016404 C -2.006433089130822 0.7679741572012989 -2.3965242925030497 1.1774558589867659 -1.9566894902602572 1.537003858976048 C -2.389173646045743 1.4000663848877788 -2.3989956305361098 0.9371023933612203 -2.2991915945856127 0.6515044314381161 C -2.2792307873955133 0.6566372104298558 -2.2576857891585806 0.656827313355476 -2.236457629131015 0.6509974903031294 C -2.1710622227177367 0.6330644476529764 -2.132471328816878 0.5652610708485121 -2.150467739108904 0.49992903207710737 C -2.168400781759057 0.4345336256638296 -2.2362041585635213 0.3959427317629709 -2.3015995649767995 0.41393914205499693 C -2.3669949713900773 0.43187218470514976 -2.405585865290936 0.4996755615096141 -2.38758945499891 0.5650709679228921 C -2.38112595552783 0.5887070983416446 -2.3680088536600508 0.6087312731736171 -2.3509629579961246 0.6240028748650904 C -2.475353638993474 0.8549145618515096 -2.4111622177757894 1.149130523069387 -2.354891751792271 1.2851808501714292 C -2.5055166365251793 1.0863965576147887 -2.59606899676217 0.8178444913556108 -2.525350708431532 0.5603183947823923 Z M -2.2063579992411824 0.5153273690523271 C -2.215863145522182 0.4807920042313615 -2.251665863180614 0.4603876235481489 -2.28620122800158 0.4698927698291485 C -2.3207365928225454 0.47939791611014815 -2.341140973505758 0.5152006337685805 -2.3316358272247584 0.5497359985895459 C -2.3221306809437587 0.5842713634105116 -2.2863913309272 0.6046123764518508 -2.2518559661062345 0.5951705978127243 C -2.2173206012852686 0.5856654515317247 -2.196916220602056 0.5498627338732925 -2.2064213668830557 0.5153907366942004 Z" fill="#ff8c0b" transform="matrix(1,0,0,1,0,0)" fill-rule="nonzero"></path></g><g clip-path="url(#SvgjsClipPath120162a981efd-c52c-4568-afb1-bff791e680d5)"><path d=" M -2.0411585568774075 -0.333862399692186 C -1.685095777191159 -0.4269494656041097 -1.509123835708918 -0.10396459497574001 -1.7570180507173898 0.07314796406022117 C -1.9616321663263767 0.2193371138619964 -2.5112830919356526 0.08626506592800065 -2.602785966800743 0.646941961223236 C -2.700372135285673 0.20393877688677686 -2.3043877412192257 -0.03603448288752875 -2.0071301331914286 -0.09236831651292032 C -2.0015537807065757 -0.07253424460656777 -1.9910347521556027 -0.05377742261206153 -1.9753195769710166 -0.03825235035309538 C -1.9270968015054113 0.009400116335649633 -1.8490912343593404 0.008893175200663017 -1.8014387676705952 -0.03932960026494203 C -1.75378630098185 -0.0875523757305472 -1.754293242116837 -0.16555794287661812 -1.802516017582442 -0.2132104095653632 C -1.850738793048047 -0.26086287625410837 -1.9287443601941177 -0.2603559351191217 -1.976396826882863 -0.2121331596535166 C -1.993632825472409 -0.1947070581383505 -2.0044686922327486 -0.1733521628270378 -2.009094530089502 -0.15098338524575183 C -2.2712464645194737 -0.1432525329372054 -2.493983725704233 0.05939718577370812 -2.583648938954997 0.17618374974625772 C -2.4868231821725466 -0.053650687328314905 -2.2995084327949793 -0.2663124934552148 -2.0411585568774075 -0.333862399692186 Z M -1.8427544701720073 -0.08007499398949414 C -1.8175975163482947 -0.10554878602257328 -1.817850986915788 -0.14673775324023863 -1.8433247789488671 -0.1718947070639511 C -1.8687985709819466 -0.19705166088766363 -1.9099875381996119 -0.19679819032017032 -1.9351444920233245 -0.17132439828709112 C -1.960301445847037 -0.14585060625401197 -1.9600479752795437 -0.10466163903634662 -1.9345741832464642 -0.0795046852126341 C -1.9091003912133853 -0.05434773138892157 -1.8679114239957197 -0.054601201956414824 -1.8427544701720073 -0.08007499398949414 Z" fill="#ff8c0b" transform="matrix(1,0,0,1,0,0)" fill-rule="nonzero"></path></g></g><g><path d=" M 0.552 -2.220446049250313e-16 L 0.9165 0.9389999999999997 Q 0.9375 0.9929999999999997 0.96375 1.0132499999999998 Q 0.99 1.0334999999999996 1.0110000000000001 1.0349999999999997 L 1.0110000000000001 1.0649999999999997 Q 0.966 1.0619999999999998 0.90525 1.0612499999999998 Q 0.8445 1.0604999999999998 0.783 1.0604999999999998 Q 0.714 1.0604999999999998 0.6525 1.0612499999999998 Q 0.591 1.0619999999999998 0.555 1.0649999999999997 L 0.555 1.0349999999999997 Q 0.6315000000000001 1.0319999999999998 0.65175 1.0087499999999998 Q 0.672 0.9854999999999997 0.642 0.9089999999999997 L 0.387 0.2114999999999997 L 0.41400000000000003 0.17249999999999965 L 0.186 0.7664999999999997 Q 0.14400000000000002 0.8774999999999997 0.14475 0.9344999999999997 Q 0.1455 0.9914999999999997 0.1815 1.0117499999999997 Q 0.2175 1.0319999999999998 0.2775 1.0349999999999997 L 0.2775 1.0649999999999997 Q 0.228 1.0619999999999998 0.183 1.0612499999999998 Q 0.138 1.0604999999999998 0.0915 1.0604999999999998 Q 0.0585 1.0604999999999998 0.02925 1.0612499999999998 Q 0 1.0619999999999998 -0.0225 1.0649999999999997 L -0.0225 1.0349999999999997 Q 0.009000000000000001 1.0289999999999997 0.042 0.9944999999999997 Q 0.075 0.9599999999999997 0.1065 0.8774999999999997 L 0.4485 -2.220446049250313e-16 Q 0.47250000000000003 0.0014999999999996128 0.50025 0.0014999999999996128 Q 0.528 0.0014999999999996128 0.552 -2.220446049250313e-16 M 0.657 0.6329999999999998 L 0.657 0.6629999999999997 L 0.21 0.6629999999999997 L 0.225 0.6329999999999998 L 0.657 0.6329999999999998 M 1.487958984375 0.0029999999999996696 Q 1.7834589843750002 0.0029999999999996696 1.927458984375 0.13724999999999965 Q 2.071458984375 0.27149999999999974 2.071458984375 0.5219999999999997 Q 2.071458984375 0.6854999999999998 2.000958984375 0.8077499999999997 Q 1.930458984375 0.9299999999999997 1.796208984375 0.9974999999999997 Q 1.661958984375 1.0649999999999997 1.474458984375 1.0649999999999997 Q 1.438458984375 1.0649999999999997 1.371708984375 1.0627499999999996 Q 1.304958984375 1.0604999999999998 1.2554589843750001 1.0604999999999998 Q 1.189458984375 1.0604999999999998 1.125708984375 1.0612499999999998 Q 1.061958984375 1.0619999999999998 1.024458984375 1.0649999999999997 L 1.024458984375 1.0349999999999997 Q 1.072458984375 1.0319999999999998 1.096458984375 1.0229999999999997 Q 1.120458984375 1.0139999999999998 1.128708984375 0.9869999999999998 Q 1.136958984375 0.9599999999999997 1.136958984375 0.9059999999999997 L 1.136958984375 0.1619999999999997 Q 1.136958984375 0.1064999999999997 1.128708984375 0.08024999999999971 Q 1.120458984375 0.053999999999999604 1.095708984375 0.04424999999999968 Q 1.070958984375 0.03449999999999975 1.024458984375 0.032999999999999696 L 1.024458984375 0.0029999999999996696 Q 1.061958984375 0.0044999999999997264 1.125708984375 0.006749999999999812 Q 1.189458984375 0.008999999999999675 1.252458984375 0.007499999999999618 Q 1.306458984375 0.005999999999999783 1.374708984375 0.0044999999999997264 Q 1.4429589843750001 0.0029999999999996696 1.487958984375 0.0029999999999996696 M 1.486458984375 0.029999999999999805 Q 1.417458984375 0.029999999999999805 1.396458984375 0.05549999999999966 Q 1.375458984375 0.08099999999999974 1.375458984375 0.1589999999999997 L 1.375458984375 0.9089999999999997 Q 1.375458984375 0.9869999999999998 1.397208984375 1.0124999999999997 Q 1.4189589843750001 1.0379999999999998 1.487958984375 1.0379999999999998 Q 1.613958984375 1.0379999999999998 1.686708984375 0.9787499999999997 Q 1.7594589843750001 0.9194999999999998 1.790958984375 0.8054999999999997 Q 1.8224589843749999 0.6914999999999998 1.8224589843749999 0.5279999999999997 Q 1.8224589843749999 0.2759999999999997 1.744458984375 0.1529999999999997 Q 1.6664589843750002 0.029999999999999805 1.486458984375 0.029999999999999805 M 2.6415021972656247 0.0029999999999996696 L 2.6415021972656247 0.032999999999999696 Q 2.5935021972656247 0.03449999999999975 2.5687521972656246 0.04424999999999968 Q 2.5440021972656246 0.053999999999999604 2.5365021972656248 0.08024999999999971 Q 2.529002197265625 0.1064999999999997 2.529002197265625 0.1619999999999997 L 2.529002197265625 0.9059999999999997 Q 2.529002197265625 0.9599999999999997 2.537252197265625 0.9869999999999998 Q 2.5455021972656247 1.0139999999999998 2.5695021972656247 1.0229999999999997 Q 2.5935021972656247 1.0319999999999998 2.6415021972656247 1.0349999999999997 L 2.6415021972656247 1.0649999999999997 Q 2.601002197265625 1.0619999999999998 2.539502197265625 1.0612499999999998 Q 2.4780021972656248 1.0604999999999998 2.4150021972656246 1.0604999999999998 Q 2.341502197265625 1.0604999999999998 2.279252197265625 1.0612499999999998 Q 2.2170021972656246 1.0619999999999998 2.178002197265625 1.0649999999999997 L 2.178002197265625 1.0349999999999997 Q 2.226002197265625 1.0319999999999998 2.2500021972656246 1.0229999999999997 Q 2.2740021972656246 1.0139999999999998 2.282252197265625 0.9869999999999998 Q 2.2905021972656248 0.9599999999999997 2.2905021972656248 0.9059999999999997 L 2.2905021972656248 0.1619999999999997 Q 2.2905021972656248 0.1064999999999997 2.282252197265625 0.08024999999999971 Q 2.2740021972656246 0.053999999999999604 2.249252197265625 0.04424999999999968 Q 2.224502197265625 0.03449999999999975 2.178002197265625 0.032999999999999696 L 2.178002197265625 0.0029999999999996696 Q 2.2170021972656246 0.0044999999999997264 2.279252197265625 0.005999999999999783 Q 2.341502197265625 0.007499999999999618 2.4150021972656246 0.007499999999999618 Q 2.4780021972656248 0.007499999999999618 2.539502197265625 0.005999999999999783 Q 2.601002197265625 0.0044999999999997264 2.6415021972656247 0.0029999999999996696 M 3.656967041015625 0.0029999999999996696 Q 3.650967041015625 0.07949999999999968 3.648717041015625 0.1499999999999997 Q 3.646467041015625 0.2204999999999997 3.646467041015625 0.2579999999999997 Q 3.646467041015625 0.2909999999999997 3.647967041015625 0.32099999999999973 Q 3.649467041015625 0.35099999999999976 3.650967041015625 0.37199999999999966 L 3.6164670410156248 0.37199999999999966 Q 3.5924670410156248 0.24599999999999966 3.555717041015625 0.17249999999999965 Q 3.518967041015625 0.09899999999999975 3.467967041015625 0.0682499999999997 Q 3.4169670410156248 0.037499999999999645 3.347967041015625 0.037499999999999645 L 3.313467041015625 0.037499999999999645 L 3.313467041015625 0.8939999999999997 Q 3.313467041015625 0.9539999999999997 3.326217041015625 0.9839999999999998 Q 3.338967041015625 1.0139999999999998 3.373467041015625 1.0237499999999997 Q 3.407967041015625 1.0334999999999996 3.4739670410156247 1.0349999999999997 L 3.4739670410156247 1.0649999999999997 Q 3.4274670410156247 1.0634999999999997 3.350217041015625 1.0619999999999998 Q 3.272967041015625 1.0604999999999998 3.188967041015625 1.0604999999999998 Q 3.106467041015625 1.0604999999999998 3.032967041015625 1.0619999999999998 Q 2.9594670410156247 1.0634999999999997 2.914467041015625 1.0649999999999997 L 2.914467041015625 1.0349999999999997 Q 2.9819670410156247 1.0334999999999996 3.016467041015625 1.0237499999999997 Q 3.0509670410156247 1.0139999999999998 3.062967041015625 0.9839999999999998 Q 3.0749670410156247 0.9539999999999997 3.0749670410156247 0.8939999999999997 L 3.0749670410156247 0.037499999999999645 L 3.0419670410156248 0.037499999999999645 Q 2.972967041015625 0.037499999999999645 2.921967041015625 0.0682499999999997 Q 2.870967041015625 0.09899999999999975 2.834967041015625 0.17174999999999974 Q 2.798967041015625 0.24449999999999972 2.7719670410156247 0.37199999999999966 L 2.7374670410156248 0.37199999999999966 Q 2.740467041015625 0.35099999999999976 2.741217041015625 0.32099999999999973 Q 2.741967041015625 0.2909999999999997 2.741967041015625 0.2579999999999997 Q 2.741967041015625 0.2204999999999997 2.739717041015625 0.1499999999999997 Q 2.7374670410156248 0.07949999999999968 2.731467041015625 0.0029999999999996696 Q 2.800467041015625 0.0044999999999997264 2.882217041015625 0.005999999999999783 Q 2.963967041015625 0.007499999999999618 3.046467041015625 0.007499999999999618 Q 3.128967041015625 0.007499999999999618 3.194967041015625 0.007499999999999618 Q 3.2624670410156247 0.007499999999999618 3.344217041015625 0.007499999999999618 Q 3.4259670410156247 0.007499999999999618 3.508467041015625 0.005999999999999783 Q 3.5909670410156247 0.0044999999999997264 3.656967041015625 0.0029999999999996696 M 4.62451171875 0.0014999999999996128 L 4.62451171875 0.03149999999999964 Q 4.5915117187500005 0.04499999999999971 4.55701171875 0.08474999999999966 Q 4.52251171875 0.12449999999999972 4.48051171875 0.20549999999999968 L 4.19701171875 0.7664999999999997 L 4.12651171875 0.7664999999999997 L 3.77551171875 0.11699999999999966 Q 3.74851171875 0.06599999999999973 3.72676171875 0.049499999999999655 Q 3.70501171875 0.032999999999999696 3.68851171875 0.032999999999999696 L 3.68851171875 0.0014999999999996128 Q 3.72901171875 0.005999999999999783 3.77176171875 0.007499999999999618 Q 3.81451171875 0.008999999999999675 3.86551171875 0.008999999999999675 Q 3.93151171875 0.008999999999999675 4.00801171875 0.006749999999999812 Q 4.08451171875 0.0044999999999997264 4.14751171875 0.0014999999999996128 L 4.14751171875 0.032999999999999696 Q 4.11001171875 0.032999999999999696 4.08001171875 0.0389999999999997 Q 4.05001171875 0.04499999999999971 4.03801171875 0.06074999999999964 Q 4.02601171875 0.07649999999999968 4.04401171875 0.11099999999999965 L 4.28101171875 0.5669999999999997 L 4.23451171875 0.6269999999999998 L 4.38901171875 0.31649999999999967 Q 4.44451171875 0.20849999999999969 4.44826171875 0.1469999999999997 Q 4.45201171875 0.08549999999999969 4.41826171875 0.0592499999999998 Q 4.38451171875 0.032999999999999696 4.32301171875 0.03149999999999964 L 4.32301171875 0.0014999999999996128 Q 4.37401171875 0.0029999999999996696 4.41901171875 0.0044999999999997264 Q 4.46401171875 0.005999999999999783 4.51051171875 0.005999999999999783 Q 4.5435117187500005 0.005999999999999783 4.57276171875 0.0044999999999997264 Q 4.60201171875 0.0029999999999996696 4.62451171875 0.0014999999999996128 M 4.30351171875 0.5294999999999997 L 4.30351171875 0.9059999999999997 Q 4.30351171875 0.9599999999999997 4.31176171875 0.9869999999999998 Q 4.32001171875 1.0139999999999998 4.34401171875 1.0229999999999997 Q 4.36801171875 1.0319999999999998 4.41601171875 1.0349999999999997 L 4.41601171875 1.0649999999999997 Q 4.37551171875 1.0619999999999998 4.31176171875 1.0612499999999998 Q 4.24801171875 1.0604999999999998 4.18501171875 1.0604999999999998 Q 4.11451171875 1.0604999999999998 4.05151171875 1.0612499999999998 Q 3.98851171875 1.0619999999999998 3.95251171875 1.0649999999999997 L 3.95251171875 1.0349999999999997 Q 4.00051171875 1.0319999999999998 4.02451171875 1.0229999999999997 Q 4.04851171875 1.0139999999999998 4.05676171875 0.9869999999999998 Q 4.06501171875 0.9599999999999997 4.06501171875 0.9059999999999997 L 4.06501171875 0.5984999999999997 L 4.19551171875 0.6914999999999998 L 4.30351171875 0.5294999999999997 M 5.104445068359375 -2.220446049250313e-16 L 5.468945068359375 0.9389999999999997 Q 5.489945068359375 0.9929999999999997 5.516195068359375 1.0132499999999998 Q 5.542445068359375 1.0334999999999996 5.563445068359375 1.0349999999999997 L 5.563445068359375 1.0649999999999997 Q 5.518445068359375 1.0619999999999998 5.457695068359374 1.0612499999999998 Q 5.396945068359375 1.0604999999999998 5.335445068359375 1.0604999999999998 Q 5.266445068359374 1.0604999999999998 5.2049450683593745 1.0612499999999998 Q 5.143445068359375 1.0619999999999998 5.107445068359374 1.0649999999999997 L 5.107445068359374 1.0349999999999997 Q 5.183945068359375 1.0319999999999998 5.2041950683593745 1.0087499999999998 Q 5.224445068359374 0.9854999999999997 5.194445068359375 0.9089999999999997 L 4.939445068359374 0.2114999999999997 L 4.966445068359374 0.17249999999999965 L 4.738445068359375 0.7664999999999997 Q 4.696445068359375 0.8774999999999997 4.697195068359375 0.9344999999999997 Q 4.697945068359375 0.9914999999999997 4.7339450683593745 1.0117499999999997 Q 4.769945068359375 1.0319999999999998 4.8299450683593745 1.0349999999999997 L 4.8299450683593745 1.0649999999999997 Q 4.780445068359374 1.0619999999999998 4.7354450683593745 1.0612499999999998 Q 4.690445068359375 1.0604999999999998 4.643945068359375 1.0604999999999998 Q 4.610945068359375 1.0604999999999998 4.581695068359375 1.0612499999999998 Q 4.552445068359375 1.0619999999999998 4.529945068359375 1.0649999999999997 L 4.529945068359375 1.0349999999999997 Q 4.561445068359375 1.0289999999999997 4.5944450683593745 0.9944999999999997 Q 4.627445068359375 0.9599999999999997 4.658945068359374 0.8774999999999997 L 5.000945068359375 -2.220446049250313e-16 Q 5.024945068359375 0.0014999999999996128 5.052695068359375 0.0014999999999996128 Q 5.080445068359374 0.0014999999999996128 5.104445068359375 -2.220446049250313e-16 M 5.209445068359375 0.6329999999999998 L 5.209445068359375 0.6629999999999997 L 4.762445068359375 0.6629999999999997 L 4.777445068359374 0.6329999999999998 L 5.209445068359375 0.6329999999999998 M 5.95939013671875 0.0029999999999996696 Q 5.99689013671875 0.0044999999999997264 6.0606401367187495 0.005999999999999783 Q 6.12439013671875 0.007499999999999618 6.18739013671875 0.007499999999999618 Q 6.25939013671875 0.007499999999999618 6.32689013671875 0.005999999999999783 Q 6.39439013671875 0.0044999999999997264 6.42289013671875 0.0044999999999997264 Q 6.63139013671875 0.0044999999999997264 6.73489013671875 0.08699999999999974 Q 6.83839013671875 0.16949999999999965 6.83839013671875 0.2999999999999997 Q 6.83839013671875 0.35399999999999976 6.81739013671875 0.4132499999999997 Q 6.79639013671875 0.4724999999999997 6.74614013671875 0.5227499999999997 Q 6.6958901367187496 0.5729999999999997 6.60889013671875 0.6044999999999997 Q 6.52189013671875 0.6359999999999997 6.3898901367187495 0.6359999999999997 L 6.23689013671875 0.6359999999999997 L 6.23689013671875 0.6059999999999997 L 6.37489013671875 0.6059999999999997 Q 6.46339013671875 0.6059999999999997 6.50914013671875 0.5654999999999997 Q 6.5548901367187495 0.5249999999999997 6.57214013671875 0.45899999999999974 Q 6.58939013671875 0.3929999999999997 6.58939013671875 0.31649999999999967 Q 6.58939013671875 0.1739999999999997 6.54739013671875 0.1034999999999997 Q 6.50539013671875 0.032999999999999696 6.40339013671875 0.032999999999999696 Q 6.34489013671875 0.032999999999999696 6.32764013671875 0.058499999999999774 Q 6.31039013671875 0.08399999999999974 6.31039013671875 0.1619999999999997 L 6.31039013671875 0.8969999999999997 Q 6.31039013671875 0.9554999999999997 6.32239013671875 0.9839999999999998 Q 6.33439013671875 1.0124999999999997 6.36889013671875 1.0214999999999996 Q 6.40339013671875 1.0304999999999997 6.47089013671875 1.0319999999999998 L 6.47089013671875 1.0649999999999997 Q 6.42439013671875 1.0634999999999997 6.35089013671875 1.0619999999999998 Q 6.27739013671875 1.0604999999999998 6.19639013671875 1.0604999999999998 Q 6.1318901367187495 1.0604999999999998 6.07039013671875 1.0619999999999998 Q 6.00889013671875 1.0634999999999997 5.95939013671875 1.0649999999999997 L 5.95939013671875 1.0349999999999997 Q 6.00739013671875 1.0319999999999998 6.03139013671875 1.0229999999999997 Q 6.05539013671875 1.0139999999999998 6.06364013671875 0.9869999999999998 Q 6.07189013671875 0.9599999999999997 6.07189013671875 0.9059999999999997 L 6.07189013671875 0.1619999999999997 Q 6.07189013671875 0.1064999999999997 6.06364013671875 0.08024999999999971 Q 6.05539013671875 0.053999999999999604 6.03064013671875 0.04424999999999968 Q 6.00589013671875 0.03449999999999975 5.95939013671875 0.032999999999999696 L 5.95939013671875 0.0029999999999996696 M 6.962858642578125 0.8549999999999998 Q 7.021358642578125 0.8549999999999998 7.055858642578125 0.8857499999999997 Q 7.090358642578125 0.9164999999999998 7.090358642578125 0.9704999999999997 Q 7.090358642578125 1.0244999999999997 7.055858642578125 1.0552499999999998 Q 7.021358642578125 1.0859999999999996 6.962858642578125 1.0859999999999996 Q 6.904358642578125 1.0859999999999996 6.869858642578125 1.0552499999999998 Q 6.835358642578125 1.0244999999999997 6.835358642578125 0.9704999999999997 Q 6.835358642578125 0.9164999999999998 6.869858642578125 0.8857499999999997 Q 6.904358642578125 0.8549999999999998 6.962858642578125 0.8549999999999998" fill="#fff1cc" fill-rule="nonzero"></path></g><g></g></g><defs><clipPath id="SvgjsClipPath12018"><path d=" M -2.617867465566596 -0.5844814233012113 h 2.217867465566596 v 2.2339628466024224 h -2.217867465566596 Z"></path></clipPath><clipPath id="SvgjsClipPath120162a981efd-c52c-4568-afb1-bff791e680d5"><path d=" M -2.617867465566596 -0.5844814233012113 L -0.3999999999999999 -0.5844814233012113 L -0.3999999999999999 1.6494814233012112 L -2.617867465566596 1.6494814233012112 Z"></path></clipPath></defs></svg>