<svg xmlns="http://www.w3.org/2000/svg" version="1.1" xmlns:xlink="http://www.w3.org/1999/xlink" viewBox="0 0 7.702023738443181 8.410199861480066"><g transform="matrix(0.8571428571428571,0,0,0.8571428571428571,1.1002891054918833,6.425517064694785)"><g transform="matrix(1,0,0,1,0,0)" clip-path="url(#SvgjsClipPath11907)"><g clip-path="url(#SvgjsClipPath11905a8f0332e-a214-4557-96a3-f1977559fc65)"><path d=" M 4.269093674561908 -5.665892552795869 C 4.8353260618270495 -5.092724443001758 4.4155761343737625 -4.4056717692819545 3.808561698638277 -4.681713525934975 C 3.307386388694879 -4.909482653786362 2.9581034021359316 -6.0972944940978255 1.7949827340276023 -5.657014827958787 C 2.52794989088919 -6.327005624257324 3.4162772323997133 -5.8388694726683905 3.848511460405146 -5.337139304922674 C 3.8170232801236206 -5.304818837937672 3.7930256801733835 -5.264314218368486 3.7808188085223957 -5.2175674485232255 C 3.7432271924153757 -5.073997992173538 3.829507580675767 -4.926683245658208 3.973077037025454 -4.889091629551189 C 4.11664649337514 -4.85150001344417 4.26396123989047 -4.937780401704561 4.301552855997491 -5.0813498580542475 C 4.339144472104509 -5.224919314403934 4.252864083844118 -5.372234060919264 4.109294627494432 -5.409825677026284 C 4.0574154229777335 -5.423419693183066 4.005120075109296 -5.420645404171477 3.95754101856056 -5.404970671256004 C 3.6558370885503497 -5.893522966196676 3.0278767707773735 -6.09396534728392 2.7084173910929987 -6.13613454026006 C 3.2500973206055837 -6.204104621043969 3.8583601863962844 -6.081758475632932 4.269093674561909 -5.665892552795869 Z M 4.005120075109296 -5.011992632764544 C 4.080996879576233 -4.992156466331688 4.15881568635128 -5.037793520572313 4.178651852784135 -5.1135316105886695 C 4.19848801921699 -5.189408415055605 4.152989679426945 -5.267227221830653 4.07711287496001 -5.287063388263508 C 4.001236070493073 -5.306899554696363 3.9235559781686056 -5.2612625004557385 3.9037198117357503 -5.185524410439382 C 3.8838836453028946 -5.109647605972446 3.9295206995435206 -5.031828799197399 4.005258789559877 -5.011992632764543 Z" fill="#ff8c0b" transform="matrix(1,0,0,1,0,0)" fill-rule="nonzero"></path></g><g clip-path="url(#SvgjsClipPath11905a8f0332e-a214-4557-96a3-f1977559fc65)"><path d=" M 5.43415634497835 -3.769388584474214 C 5.220952234437801 -2.9924489467789543 4.415992277725501 -3.012423827662389 4.3514900582060765 -3.6761724736848524 C 4.298223709183584 -4.224094553473511 5.152149866950414 -5.120467333117641 4.189332865478749 -5.907533125705197 C 5.136058990683203 -5.607771198003098 5.157559730523012 -4.594323422069949 4.939084470860446 -3.9691373933085607 C 4.895389418927933 -3.9803732638054927 4.848226505730934 -3.9807894071572307 4.8017571647868325 -3.968027677703925 C 4.658603851788884 -3.9287714881899527 4.574126751386025 -3.7803470260699874 4.613521655350577 -3.637332427522618 C 4.652777844864549 -3.49417911452467 4.801202306984515 -3.4097020141218115 4.944355619982463 -3.449096918086363 C 5.087508932980412 -3.4883531076003353 5.171986033383272 -3.6367775697203006 5.132591129418719 -3.779930882718249 C 5.1184422554596205 -3.831671372784368 5.089728364189683 -3.87550513916746 5.052414176983822 -3.908935321757098 C 5.324710643471199 -4.414410779668458 5.1841929050342594 -5.058461973708646 5.061014472919745 -5.356281899102632 C 5.390738721946996 -4.921134667635032 5.588961671824969 -4.333262826079505 5.4341563449783505 -3.7695272989247934 Z M 4.735867800761613 -3.6710400390134144 C 4.756674968348524 -3.5954406634476377 4.835048632925889 -3.5507746103610685 4.910648008491667 -3.5715817779479795 C 4.986247384057444 -3.5923889455348905 5.030913437144013 -3.670762610112256 5.010106269557102 -3.7463619856780324 C 4.989299101970191 -3.8219613612438095 4.911064151843405 -3.866488699879799 4.835464776277629 -3.8458202467434672 C 4.759865400711853 -3.825013079156556 4.715199347625283 -3.746639414579191 4.736006515212194 -3.6711787534639937 Z" fill="#ff8c0b" transform="matrix(1,0,0,1,0,0)" fill-rule="nonzero"></path></g><g clip-path="url(#SvgjsClipPath11905a8f0332e-a214-4557-96a3-f1977559fc65)"><path d=" M 4.3742392281011 -1.8119889723481988 C 3.594802730295411 -1.6082174444470496 3.209592701036397 -2.3152449990502877 3.752243631703038 -2.7029518884197317 C 4.200152592623944 -3.0229661259064238 5.403361736949722 -2.731665779689669 5.603665403586386 -3.959011238416264 C 5.817424371929253 -2.9892585144156283 4.950597770258537 -2.4639468900714125 4.299888282590537 -2.34062974350632 C 4.28768141093955 -2.3840473665376742 4.264654812143368 -2.4251068439091785 4.230253628399675 -2.459091884301134 C 4.124691931508746 -2.563405151136848 3.9539344428454957 -2.562295435532213 3.8496211760097814 -2.456733738641284 C 3.745307909174067 -2.3511720417503548 3.746417624778702 -2.1804145530871044 3.851979321669631 -2.07610128625139 C 3.95754101856056 -1.9717880194156763 4.1282985072238105 -1.9728977350203118 4.232611774059524 -2.0784594319112406 C 4.270342104617123 -2.1166059058205775 4.294062275666202 -2.1633526756658377 4.304188430558499 -2.212318876720368 C 4.878050112605505 -2.2292420396910564 5.365631406392123 -2.6728508526440002 5.561912353961984 -2.9285015850618477 C 5.349956673476649 -2.4253842728103376 4.939916757563922 -1.9598585766658472 4.3743779425516784 -1.8119889723481988 Z M 3.939924283336976 -2.367540346918725 C 3.884854646456951 -2.3117771377858034 3.8854095042592687 -2.2216127449091885 3.9411727133921906 -2.1665431080291637 C 3.9969359225251124 -2.1114734711491385 4.087100315401727 -2.1120283289514568 4.142169952281751 -2.1677915380843777 C 4.197239589161777 -2.2235547472172996 4.1966847313594595 -2.313719140093914 4.140921522226536 -2.368788776973939 C 4.085158313093615 -2.423858413853964 3.9949939202170004 -2.4233035560516463 3.939924283336976 -2.367540346918725 Z" fill="#ff8c0b" transform="matrix(1,0,0,1,0,0)" fill-rule="nonzero"></path></g><g clip-path="url(#SvgjsClipPath11905a8f0332e-a214-4557-96a3-f1977559fc65)"><path d=" M 2.149259440807408 -1.751370757444998 C 1.583027053542268 -2.3245388672391085 2.002776980995554 -3.011591540958912 2.6097914167310403 -2.7355497843058916 C 3.1108280122238594 -2.5076419420039255 3.460249713233386 -1.3199688161430414 4.623370381341715 -1.7602484822820799 C 3.890403224480128 -1.0902576859835431 3.002075882969604 -1.5783938375724764 2.5698416549641716 -2.0801240053181926 C 2.6013298352456973 -2.1124444723031948 2.6253274351959344 -2.152949091872382 2.637534306846922 -2.1996958617176414 C 2.6751259229539417 -2.3432653180673286 2.5888455346935504 -2.4905800645826583 2.4452760783438636 -2.528171680689678 C 2.3017066219941773 -2.5657632967966975 2.154391875478847 -2.479482908536306 2.1168002593718276 -2.3359134521866194 C 2.0792086432648085 -2.192343995836933 2.1654890315251993 -2.045029249321602 2.309058487874886 -2.0074376332145834 C 2.360937692391584 -1.9938436170578013 2.413233040260021 -1.9966179060693898 2.4608120968087572 -2.0122926389848628 C 2.762377312368389 -1.5237403440441906 3.390337630141365 -1.3234366774075257 3.7099357242763196 -1.2812674844313872 C 3.168255794763734 -1.213297403647478 2.559992928973034 -1.3356435490585143 2.149259440807409 -1.7515094718955773 Z M 2.41323304026002 -2.405270677476323 C 2.3373562357930844 -2.4251068439091785 2.259537429018037 -2.379469789668553 2.2397012625851818 -2.3037316996521975 C 2.2198650961523265 -2.227854895185261 2.265502150392951 -2.1500360884102143 2.3412402404093076 -2.1301999219773595 C 2.4171170448762433 -2.110363755544504 2.4947971372007114 -2.1560008097851293 2.514633303633567 -2.231738899801485 C 2.5344694700664223 -2.307615704268421 2.4888324158257973 -2.3854345110434676 2.413094325809441 -2.405270677476323 Z" fill="#ff8c0b" transform="matrix(1,0,0,1,0,0)" fill-rule="nonzero"></path></g><g clip-path="url(#SvgjsClipPath11905a8f0332e-a214-4557-96a3-f1977559fc65)"><path d=" M 0.9841967703909671 -3.6478747257666533 C 1.197400880931516 -4.424814363461913 2.002360837643816 -4.4048394825784785 2.06686305716324 -3.7410908365560145 C 2.1201294061857325 -3.1931687567673563 1.2662032484189019 -2.296795977123227 2.229020249890567 -1.5097301845356705 C 1.282294124686113 -1.809492112237769 1.2607933848463049 -2.8229398881709185 1.4792686445088714 -3.4481259169323066 C 1.5229636964413844 -3.4368900464353747 1.570126609638383 -3.4364739030836366 1.6165959505824845 -3.449235632536942 C 1.7597492635804326 -3.4884918220509142 1.8442263639832916 -3.63691628417088 1.80483146001874 -3.779930882718249 C 1.7655752705047676 -3.9230841957161973 1.6171508083848019 -4.007561296119055 1.473997495386854 -3.9681663921545045 C 1.3308441823889057 -3.928910202640532 1.2463670819860466 -3.7804857405205667 1.2857619859505984 -3.637332427522618 C 1.2999108599096978 -3.5855919374564995 1.328624751179635 -3.541758171073407 1.3659389383854956 -3.5083279884837695 C 1.0936424718981193 -3.0028525305724094 1.2341602103350588 -2.3588013365322213 1.3573386424495724 -2.0609814111382345 C 1.0276143934223214 -2.496128642605835 0.8293914435443486 -3.0840004841613626 0.9841967703909671 -3.6477360113160735 Z M 1.6824853146077028 -3.7462232712274526 C 1.6616781470207918 -3.8218226467932297 1.5833044824434268 -3.8664886998797985 1.50770510687765 -3.8456815322928875 C 1.4321057313118728 -3.8248743647059764 1.3874396782253038 -3.7465007001286112 1.408246845812215 -3.670901324562835 C 1.4290540133991259 -3.595301948997058 1.5072889635259115 -3.550774610361068 1.5828883390916886 -3.5714430634974 C 1.6584877146574655 -3.5922502310843107 1.7031537677440345 -3.6706238956616764 1.6823466001571235 -3.7460845567768737 Z" fill="#ff8c0b" transform="matrix(1,0,0,1,0,0)" fill-rule="nonzero"></path></g><g clip-path="url(#SvgjsClipPath11905a8f0332e-a214-4557-96a3-f1977559fc65)"><path d=" M 2.0441138872682174 -5.605135623442089 C 2.8235503850739065 -5.808907151343238 3.2087604143329203 -5.10187959674 2.66610948366628 -4.714172707370556 C 2.2182005227453736 -4.394158469883864 1.0149913784195959 -4.685458816100619 0.8146877117829319 -3.4581133573740246 C 0.6010674578906444 -4.42786608137466 1.46789405956136 -4.9531777057188755 2.118603547229359 -5.076494852283968 C 2.1308104188803467 -5.033077229252614 2.1538370176765285 -4.992017751881109 2.1882382014202215 -4.958032711489155 C 2.2937998983111507 -4.85371944465344 2.464557386974401 -4.854829160258076 2.568870653810115 -4.9603908571490045 C 2.6731839206458297 -5.065952554039933 2.672074205041194 -5.236710042703184 2.5665125081502653 -5.3410233095388975 C 2.4609508112593366 -5.445336576374612 2.290193322596086 -5.444226860769977 2.185880055760372 -5.338665163879048 C 2.1481497252027735 -5.300518689969711 2.1244295541536946 -5.253771920124451 2.1143033992613978 -5.2048057190699195 C 1.5404417172143903 -5.1878825560992325 1.052860423427774 -4.744273743146287 0.8565794758579128 -4.488623010728441 C 1.0685351563432466 -4.99174032297995 1.4785750722559743 -5.457266019124441 2.0441138872682174 -5.605135623442089 Z M 2.4784288320323418 -5.049584248871563 C 2.5334984689123665 -5.105347458004485 2.5329436111100487 -5.1955118508811 2.477180401977127 -5.250581487761124 C 2.4214171928442054 -5.305651124641149 2.3312527999675905 -5.305096266838831 2.2761831630875657 -5.249333057705909 C 2.2211135262075414 -5.193569848572988 2.2216683840098588 -5.1034054556963735 2.27743159314278 -5.048335818816349 C 2.333194802275702 -4.993266181936324 2.423359195152317 -4.993821039738641 2.4784288320323418 -5.049584248871563 Z" fill="#ff8c0b" transform="matrix(1,0,0,1,0,0)" fill-rule="nonzero"></path></g></g><g><path d=" M 0.4944506772866043 -2.220446049250313e-16 L 0.8209493582122697 0.8411035977755821 Q 0.8397599818046948 0.8894737727275326 0.8632732612952263 0.907612588334514 Q 0.8867865407857577 0.9257514039414954 0.9055971643781829 0.9270950199123829 L 0.9055971643781829 0.9539673393301331 Q 0.8652886852515576 0.9512801073883581 0.8108722384306133 0.9506082994029144 Q 0.7564557916096691 0.9499364914174706 0.7013675368032811 0.9499364914174706 Q 0.6395612021424556 0.9499364914174706 0.5844729473360676 0.9506082994029144 Q 0.5293846925296796 0.9512801073883581 0.4971379092283793 0.9539673393301331 L 0.4971379092283793 0.9270950199123829 Q 0.5656623237436424 0.9244077879706079 0.5838011393506238 0.9035817404218515 Q 0.6019399549576052 0.882755692873095 0.575067635539855 0.8142312783578319 L 0.346652920488978 0.18944985189513897 L 0.37083800796495325 0.1545158366520637 L 0.16660838039005146 0.6865877611235183 Q 0.1289871332052011 0.7860153429691942 0.1296589411906449 0.8370727498629196 Q 0.13033074917608864 0.8881301567566451 0.1625775324773889 0.9062689723636265 Q 0.1948243157786892 0.9244077879706079 0.24856895461418965 0.9270950199123829 L 0.24856895461418965 0.9539673393301331 Q 0.2042296275749018 0.9512801073883581 0.16392114844827643 0.9506082994029144 Q 0.12361266932165108 0.9499364914174706 0.08196057422413822 0.9499364914174706 Q 0.052401022864612956 0.9499364914174706 0.026200511432306478 0.9506082994029144 Q 0 0.9512801073883581 -0.020154239563312675 0.9539673393301331 L -0.020154239563312675 0.9270950199123829 Q 0.00806169582532507 0.9217205560288328 0.037621247184850326 0.8908173886984201 Q 0.06718079854437559 0.8599142213680073 0.09539673393301333 0.7860153429691942 L 0.401741175295366 -2.220446049250313e-16 Q 0.4232390308295662 0.0013436159708872797 0.44809592629098516 0.0013436159708872797 Q 0.4729528217524041 0.0013436159708872797 0.4944506772866043 -2.220446049250313e-16 M 0.5885037952487301 0.5670059397145297 L 0.5885037952487301 0.59387825913228 L 0.18810623592425163 0.59387825913228 L 0.20154239563312676 0.5670059397145297 L 0.5885037952487301 0.5670059397145297 M 1.3328303036212077 0.0026872319417747814 Q 1.5975226498860475 0.0026872319417747814 1.7265097830912486 0.12294086133620707 Q 1.8554969162964499 0.24319449073063937 1.8554969162964499 0.4675783578688539 Q 1.8554969162964499 0.6140324986955927 1.7923469656647368 0.7235372003229248 Q 1.7291970150330236 0.8330419019502571 1.6089433856385913 0.8935046206401951 Q 1.488689756244159 0.9539673393301331 1.3207377598832202 0.9539673393301331 Q 1.2884909765819197 0.9539673393301331 1.2287000658774256 0.9519519153738019 Q 1.1689091551729311 0.9499364914174706 1.1245698281336434 0.9499364914174706 Q 1.0654507254145928 0.9499364914174706 1.0083470466518736 0.9506082994029144 Q 0.9512433678891543 0.9512801073883581 0.9176529686169665 0.9539673393301331 L 0.9176529686169665 0.9270950199123829 Q 0.9606486796853669 0.9244077879706079 0.9821465352195671 0.9163460921452828 Q 1.0036443907537673 0.9082843963199577 1.0110342785936486 0.8840993088439825 Q 1.0184241664335298 0.8599142213680073 1.0184241664335298 0.8115440464160568 L 1.0184241664335298 0.14511052485585108 Q 1.0184241664335298 0.09539673393301318 1.0110342785936486 0.07188345444248168 Q 1.0036443907537673 0.04837017495195017 0.9814747272341233 0.03963667114118141 Q 0.9593050637144794 0.03090316733041254 0.9176529686169665 0.029559551359525038 L 0.9176529686169665 0.0026872319417747814 Q 0.9512433678891543 0.004030847912662283 1.0083470466518736 0.006046271868993647 Q 1.0654507254145928 0.0080616958253249 1.1218825961918684 0.006718079854437398 Q 1.1702527711438186 0.005374463883549896 1.2313872978192006 0.004030847912662283 Q 1.2925218244945822 0.0026872319417747814 1.3328303036212077 0.0026872319417747814 M 1.3314866876503202 0.026872319417750035 Q 1.2696803529894947 0.026872319417750035 1.2508697293970694 0.049713790922837786 Q 1.2320591058046442 0.07255526242792543 1.2320591058046442 0.14242329291407607 L 1.2320591058046442 0.8142312783578319 Q 1.2320591058046442 0.8840993088439825 1.2515415373825132 0.9069407803490702 Q 1.2710239689603822 0.9297822518541579 1.3328303036212077 0.9297822518541579 Q 1.4456940451757587 0.9297822518541579 1.510859419763803 0.8767094210041012 Q 1.5760247943518473 0.8236365901540444 1.604240729740485 0.7215217763665935 Q 1.6324566651291228 0.6194069625791427 1.6324566651291228 0.47295282175240394 Q 1.6324566651291228 0.24722533864330198 1.5625886346429723 0.13704882903052595 Q 1.4927206041568217 0.026872319417750035 1.3314866876503202 0.026872319417750035 M 2.3661096929203653 0.0026872319417747814 L 2.3661096929203653 0.029559551359525038 Q 2.323113981851965 0.03090316733041254 2.300944318332321 0.03963667114118141 Q 2.278774654812677 0.04837017495195017 2.2720565749582393 0.07188345444248168 Q 2.265338495103802 0.09539673393301318 2.265338495103802 0.14511052485585108 L 2.265338495103802 0.8115440464160568 Q 2.265338495103802 0.8599142213680073 2.2727283829436833 0.8840993088439825 Q 2.2801182707835643 0.9082843963199577 2.301616126317765 0.9163460921452828 Q 2.323113981851965 0.9244077879706079 2.3661096929203653 0.9270950199123829 L 2.3661096929203653 0.9539673393301331 Q 2.3298320617064023 0.9512801073883581 2.2747438069000143 0.9506082994029144 Q 2.2196555520936263 0.9499364914174706 2.163223681316351 0.9499364914174706 Q 2.0973864987428628 0.9499364914174706 2.041626435951031 0.9506082994029144 Q 1.9858663731591994 0.9512801073883581 1.9509323579161242 0.9539673393301331 L 1.9509323579161242 0.9270950199123829 Q 1.9939280689845245 0.9244077879706079 2.0154259245187247 0.9163460921452828 Q 2.0369237800529247 0.9082843963199577 2.044313667892806 0.8840993088439825 Q 2.0517035557326873 0.8599142213680073 2.0517035557326873 0.8115440464160568 L 2.0517035557326873 0.14511052485585108 Q 2.0517035557326873 0.09539673393301318 2.044313667892806 0.07188345444248168 Q 2.0369237800529247 0.04837017495195017 2.0147541165332807 0.03963667114118141 Q 1.992584453013637 0.03090316733041254 1.9509323579161242 0.029559551359525038 L 1.9509323579161242 0.0026872319417747814 Q 1.9858663731591994 0.004030847912662283 2.041626435951031 0.005374463883549896 Q 2.0973864987428628 0.006718079854437398 2.163223681316351 0.006718079854437398 Q 2.2196555520936263 0.006718079854437398 2.2747438069000143 0.005374463883549896 Q 2.3298320617064023 0.004030847912662283 2.3661096929203653 0.0026872319417747814 M 3.275706214211893 0.0026872319417747814 Q 3.2703317503283427 0.07121164645703792 3.2683163263720116 0.13436159708875095 Q 3.26630090241568 0.19751154772046398 3.26630090241568 0.23110194699265185 Q 3.26630090241568 0.2606614983521771 3.2676445183865677 0.28753381776992726 Q 3.268988134357455 0.3144061371876775 3.2703317503283427 0.33321676078010265 L 3.23942858299793 0.33321676078010265 Q 3.21793072746373 0.22035301922555173 3.1850121361769856 0.1545158366520637 Q 3.1520935448902416 0.08867865407857556 3.106410601880066 0.06113452667538155 Q 3.060727658869891 0.03359039927218754 2.9989213242090655 0.03359039927218754 L 2.9680181568786526 0.03359039927218754 L 2.9680181568786526 0.8007951186489568 Q 2.9680181568786526 0.8545397574844572 2.9794388926311965 0.8814120769022075 Q 2.9908596283837405 0.9082843963199577 3.021762795714153 0.9170179001307266 Q 3.052665963044566 0.9257514039414954 3.1117850657636166 0.9270950199123829 L 3.1117850657636166 0.9539673393301331 Q 3.0701329706661036 0.9526237233592456 3.0009367481653966 0.9512801073883581 Q 2.93174052566469 0.9499364914174706 2.856498031294989 0.9499364914174706 Q 2.782599152896176 0.9499364914174706 2.716761970322688 0.9512801073883581 Q 2.6509247877492 0.9526237233592456 2.6106163086225744 0.9539673393301331 L 2.6106163086225744 0.9270950199123829 Q 2.6710790273125125 0.9257514039414954 2.7019821946429254 0.9170179001307266 Q 2.732885361973338 0.9082843963199577 2.743634289740438 0.8814120769022075 Q 2.7543832175075385 0.8545397574844572 2.7543832175075385 0.8007951186489568 L 2.7543832175075385 0.03359039927218754 L 2.724823666148013 0.03359039927218754 Q 2.6630173314871874 0.03359039927218754 2.617334388477012 0.06113452667538155 Q 2.571651445466837 0.08867865407857556 2.5394046621655364 0.15384402866661984 Q 2.5071578788642364 0.21900940325466423 2.482972791388261 0.33321676078010265 L 2.4520696240578483 0.33321676078010265 Q 2.4547568559996233 0.3144061371876775 2.455428663985067 0.28753381776992726 Q 2.456100471970511 0.2606614983521771 2.456100471970511 0.23110194699265185 Q 2.456100471970511 0.19751154772046398 2.4540850480141794 0.13436159708875095 Q 2.4520696240578483 0.07121164645703792 2.4466951601742983 0.0026872319417747814 Q 2.508501494835124 0.004030847912662283 2.581728565248493 0.005374463883549896 Q 2.6549556356618624 0.006718079854437398 2.7288545140606755 0.006718079854437398 Q 2.802753392459489 0.006718079854437398 2.861872495178539 0.006718079854437398 Q 2.922335213868477 0.006718079854437398 2.9955622842818466 0.006718079854437398 Q 3.068789354695216 0.006718079854437398 3.142688233094029 0.005374463883549896 Q 3.216587111492842 0.004030847912662283 3.275706214211893 0.0026872319417747814 M 4.142378535245971 0.0013436159708872797 L 4.142378535245971 0.028215935388637536 Q 4.112818983886446 0.04030847912662516 4.081915816556033 0.07591430235514418 Q 4.05101264922562 0.11152012558366331 4.01339140204077 0.18407538801158896 L 3.75944798354303 0.6865877611235183 L 3.696298032911317 0.6865877611235183 L 3.3818918957236392 0.10480204572922569 Q 3.357706808247664 0.0591191027190503 3.338224376669795 0.04433932703928767 Q 3.318741945091926 0.029559551359525038 3.3039621694121637 0.029559551359525038 L 3.3039621694121637 0.0013436159708872797 Q 3.3402398006261262 0.005374463883549896 3.3785328557964207 0.006718079854437398 Q 3.4168259109667147 0.0080616958253249 3.46250885397689 0.0080616958253249 Q 3.5216279566959408 0.0080616958253249 3.590152371211204 0.006046271868993647 Q 3.658676785726467 0.004030847912662283 3.7151086565037423 0.0013436159708872797 L 3.7151086565037423 0.029559551359525038 Q 3.6815182572315543 0.029559551359525038 3.6546459378138043 0.034934015243075156 Q 3.627773618396054 0.04030847912662516 3.617024690628954 0.05441644682094404 Q 3.606275762861854 0.06852441451526292 3.622399154512504 0.09942758184567568 L 3.834690477912731 0.5078868369954792 L 3.793038382815218 0.5616314758309797 L 3.9314308278166314 0.28350296985726475 Q 3.9811446187394695 0.18676261995336396 3.9845036586666884 0.13167436514697595 Q 3.987862698593907 0.07658611034058793 3.957631339248938 0.05307283085005654 Q 3.927399979903969 0.029559551359525038 3.872311725097581 0.028215935388637536 L 3.872311725097581 0.0013436159708872797 Q 3.9179946681077564 0.0026872319417747814 3.958303147234382 0.004030847912662283 Q 3.998611626361007 0.005374463883549896 4.04026372145852 0.005374463883549896 Q 4.069823272818045 0.005374463883549896 4.0960237842503515 0.004030847912662283 Q 4.122224295682658 0.0026872319417747814 4.142378535245971 0.0013436159708872797 M 3.8548447174760434 0.47429643772329144 L 3.8548447174760434 0.8115440464160568 Q 3.8548447174760434 0.8599142213680073 3.862234605315925 0.8840993088439825 Q 3.869624493155806 0.9082843963199577 3.8911223486900064 0.9163460921452828 Q 3.9126202042242064 0.9244077879706079 3.955615915292607 0.9270950199123829 L 3.955615915292607 0.9539673393301331 Q 3.919338284078644 0.9512801073883581 3.862234605315925 0.9506082994029144 Q 3.8051309265532054 0.9499364914174706 3.74869905577593 0.9499364914174706 Q 3.685549105144217 0.9499364914174706 3.6291172343669413 0.9506082994029144 Q 3.572685363589666 0.9512801073883581 3.5404385802883658 0.9539673393301331 L 3.5404385802883658 0.9270950199123829 Q 3.583434291356766 0.9244077879706079 3.6049321468909663 0.9163460921452828 Q 3.6264300024251663 0.9082843963199577 3.633819890265048 0.8840993088439825 Q 3.641209778104929 0.8599142213680073 3.641209778104929 0.8115440464160568 L 3.641209778104929 0.536102772384117 L 3.7581043675721424 0.6194069625791427 L 3.8548447174760434 0.47429643772329144 M 4.572275944243768 -2.220446049250313e-16 L 4.898774625169433 0.8411035977755821 Q 4.917585248761858 0.8894737727275326 4.94109852825239 0.907612588334514 Q 4.964611807742921 0.9257514039414954 4.983422431335347 0.9270950199123829 L 4.983422431335347 0.9539673393301331 Q 4.943113952208721 0.9512801073883581 4.888697505387777 0.9506082994029144 Q 4.834281058566833 0.9499364914174706 4.779192803760445 0.9499364914174706 Q 4.717386469099619 0.9499364914174706 4.662298214293231 0.9506082994029144 Q 4.607209959486843 0.9512801073883581 4.574963176185543 0.9539673393301331 L 4.574963176185543 0.9270950199123829 Q 4.643487590700806 0.9244077879706079 4.6616264063077875 0.9035817404218515 Q 4.679765221914769 0.882755692873095 4.652892902497019 0.8142312783578319 L 4.424478187446142 0.18944985189513897 L 4.448663274922117 0.1545158366520637 L 4.244433647347215 0.6865877611235183 Q 4.206812400162365 0.7860153429691942 4.207484208147808 0.8370727498629196 Q 4.208156016133253 0.8881301567566451 4.240402799434553 0.9062689723636265 Q 4.272649582735853 0.9244077879706079 4.326394221571354 0.9270950199123829 L 4.326394221571354 0.9539673393301331 Q 4.282054894532066 0.9512801073883581 4.24174641540544 0.9506082994029144 Q 4.201437936278815 0.9499364914174706 4.159785841181302 0.9499364914174706 Q 4.130226289821777 0.9499364914174706 4.10402577838947 0.9506082994029144 Q 4.077825266957164 0.9512801073883581 4.057671027393851 0.9539673393301331 L 4.057671027393851 0.9270950199123829 Q 4.085886962782489 0.9217205560288328 4.115446514142014 0.8908173886984201 Q 4.14500606550154 0.8599142213680073 4.173222000890177 0.7860153429691942 L 4.47956644225253 -2.220446049250313e-16 Q 4.50106429778673 0.0013436159708872797 4.5259211932481485 0.0013436159708872797 Q 4.550778088709568 0.0013436159708872797 4.572275944243768 -2.220446049250313e-16 M 4.666329062205894 0.5670059397145297 L 4.666329062205894 0.59387825913228 L 4.265931502881416 0.59387825913228 L 4.279367662590291 0.5670059397145297 L 4.666329062205894 0.5670059397145297 M 5.3380878429632155 0.0026872319417747814 Q 5.3716782422354035 0.004030847912662283 5.428781920998123 0.005374463883549896 Q 5.4858855997608424 0.006718079854437398 5.5423174705381175 0.006718079854437398 Q 5.6068110371407185 0.006718079854437398 5.6672737558306565 0.005374463883549896 Q 5.7277364745205945 0.004030847912662283 5.753265177967457 0.004030847912662283 Q 5.940027797920821 0.004030847912662283 6.03273729991206 0.07792972631147543 Q 6.125446801903298 0.15182860471028858 6.125446801903298 0.2687231941775021 Q 6.125446801903298 0.3170933691294525 6.106636178310873 0.3701661999795093 Q 6.087825554718448 0.42323903082956604 6.042814419693716 0.46825016585429763 Q 5.997803284668984 0.5132613008790292 5.919873558357509 0.541477236267667 Q 5.841943832046033 0.5696931716563047 5.723705626607932 0.5696931716563047 L 5.5866567975774055 0.5696931716563047 L 5.5866567975774055 0.5428208522385545 L 5.710269466899057 0.5428208522385545 Q 5.78954280918142 0.5428208522385545 5.830523096293489 0.5065432210245917 Q 5.871503383405558 0.4702655898106289 5.886954967070764 0.4111464870915784 Q 5.902406550735971 0.3520273843725279 5.902406550735971 0.28350296985726475 Q 5.902406550735971 0.1558594526229512 5.864785303551121 0.09270950199123806 Q 5.82716405636627 0.029559551359525038 5.7357981703459195 0.029559551359525038 Q 5.6833971474813065 0.029559551359525038 5.6679455638161 0.05240102286461279 Q 5.6524939801508935 0.07524249436970043 5.6524939801508935 0.14511052485585108 L 5.6524939801508935 0.8034823505907318 Q 5.6524939801508935 0.8558833734553448 5.663242907917994 0.8814120769022075 Q 5.673991835685094 0.9069407803490702 5.704895003015507 0.9150024761743952 Q 5.7357981703459195 0.9230641719997204 5.796260889035858 0.9244077879706079 L 5.796260889035858 0.9539673393301331 Q 5.754608793938345 0.9526237233592456 5.6887716113648565 0.9512801073883581 Q 5.6229344287913685 0.9499364914174706 5.5503791663634425 0.9499364914174706 Q 5.4926036796152795 0.9499364914174706 5.4375154248088915 0.9512801073883581 Q 5.3824271700025035 0.9526237233592456 5.3380878429632155 0.9539673393301331 L 5.3380878429632155 0.9270950199123829 Q 5.381083554031616 0.9244077879706079 5.4025814095658165 0.9163460921452828 Q 5.4240792651000165 0.9082843963199577 5.431469152939898 0.8840993088439825 Q 5.438859040779779 0.8599142213680073 5.438859040779779 0.8115440464160568 L 5.438859040779779 0.14511052485585108 Q 5.438859040779779 0.09539673393301318 5.431469152939898 0.07188345444248168 Q 5.4240792651000165 0.04837017495195017 5.401909601580373 0.03963667114118141 Q 5.3797399380607285 0.03090316733041254 5.3380878429632155 0.029559551359525038 L 5.3380878429632155 0.0026872319417747814 M 6.236938716800072 0.7658611034058815 Q 6.289339739664685 0.7658611034058815 6.320242906995098 0.7934052308090754 Q 6.351146074325511 0.8209493582122694 6.351146074325511 0.8693195331642198 Q 6.351146074325511 0.9176897081161703 6.320242906995098 0.9452338355193642 Q 6.289339739664685 0.9727779629225582 6.236938716800072 0.9727779629225582 Q 6.184537693935459 0.9727779629225582 6.153634526605046 0.9452338355193642 Q 6.122731359274634 0.9176897081161703 6.122731359274634 0.8693195331642198 Q 6.122731359274634 0.8209493582122694 6.153634526605046 0.7934052308090754 Q 6.184537693935459 0.7658611034058815 6.236938716800072 0.7658611034058815" fill="#fff1cc" fill-rule="nonzero"></path></g><g></g></g><defs><clipPath id="SvgjsClipPath11907"><path d=" M 0.7816736725450326 -6.1537512754836445 h 4.855005770279252 v 4.890239240726422 h -4.855005770279252 Z"></path></clipPath><clipPath id="SvgjsClipPath11905a8f0332e-a214-4557-96a3-f1977559fc65"><path d=" M 0.7816736725450326 -6.1537512754836445 L 5.636679442824285 -6.1537512754836445 L 5.636679442824285 -1.2635120347572224 L 0.7816736725450326 -1.2635120347572224 Z"></path></clipPath></defs></svg>