<svg width="50" height="50" viewBox="0 0 50 50" fill="none" xmlns="http://www.w3.org/2000/svg">
<rect x="1" y="1" width="48" height="48" rx="24" fill="#FFE500"/>
<rect x="1" y="1" width="48" height="48" rx="24" stroke="#130350" stroke-width="2"/>
<g clip-path="url(#clip0_143_12804)">
<path d="M39.7571 18H29.9469C29.8073 18 29.7335 18.1629 29.8268 18.2653L31.8539 20.4926C31.8844 20.5262 31.9282 20.5455 31.974 20.5455H33.2988C33.3879 20.5455 33.4602 20.6167 33.4602 20.7045V31.8409C33.4602 31.9288 33.5326 32 33.6217 32H36.2598C36.3489 32 36.4212 31.9288 36.4212 31.8409V20.7045C36.4212 20.6167 36.4934 20.5455 36.5827 20.5455H39.7571C39.8462 20.5455 39.9186 20.4742 39.9186 20.3864V18.1591C39.9186 18.0712 39.8462 18 39.7571 18Z" fill="#130350"/>
<path fill-rule="evenodd" clip-rule="evenodd" d="M22.6861 30.2292C22.5972 30.3167 22.568 30.4471 22.6111 30.5633L23.0642 31.7864C23.1026 31.8901 23.0246 32 22.9125 32H20.6561C20.5883 32 20.5276 31.9581 20.5044 31.8953L15.4552 18.2135C15.4169 18.1097 15.4949 18 15.6069 18H17.8436C17.9114 18 17.972 18.0418 17.9952 18.1045L19.9379 23.3482C19.9515 23.3848 19.9868 23.4091 20.0263 23.4091C20.0688 23.4091 20.1059 23.381 20.1175 23.3407C20.2103 23.0187 20.331 22.7081 20.4768 22.4119C20.539 22.2855 20.517 22.1333 20.4163 22.034L19.773 21.4002C19.6469 21.2759 19.6469 21.0745 19.773 20.9502L21.5997 19.1503C21.7258 19.026 21.9302 19.026 22.0563 19.1503L22.6684 19.7534C22.7712 19.8547 22.9295 19.875 23.0588 19.8096C23.3164 19.6793 23.5851 19.5674 23.8632 19.4757C23.9997 19.4307 24.0951 19.3069 24.0951 19.1651V18.3182C24.0951 18.1425 24.2397 18 24.4181 18H27.0014C27.1798 18 27.3243 18.1425 27.3243 18.3182V19.1651C27.3243 19.3069 27.4197 19.4307 27.5562 19.4757C27.8344 19.5674 28.103 19.6793 28.3607 19.8096C28.4899 19.875 28.6483 19.8547 28.751 19.7534L29.363 19.1503C29.4891 19.026 29.6937 19.026 29.8198 19.1503L31.6466 20.9502C31.7726 21.0745 31.7726 21.2759 31.6466 21.4002L31.0031 22.034C30.9024 22.1333 30.8804 22.2855 30.9426 22.4119C31.0634 22.6571 31.1669 22.9121 31.2516 23.1754C31.2957 23.3124 31.4224 23.4091 31.5684 23.4091H32.491C32.6694 23.4091 32.8139 23.5515 32.8139 23.7273V26.2727C32.8139 26.4485 32.6694 26.5909 32.491 26.5909H31.5059C31.364 26.5909 31.2397 26.6824 31.1925 26.8142C31.1053 27.0574 31.0022 27.2931 30.884 27.5199C30.8175 27.6473 30.8381 27.8033 30.941 27.9046L31.6466 28.5998C31.7726 28.7241 31.7726 28.9255 31.6466 29.0498L29.8198 30.8497C29.6937 30.974 29.4893 30.974 29.363 30.8497L28.6263 30.1237C28.5256 30.0245 28.371 30.0028 28.2428 30.0641C28.0215 30.1699 27.7922 30.2623 27.5562 30.3401C27.4197 30.3851 27.3243 30.5089 27.3243 30.6507V31.6818C27.3243 31.8576 27.1798 32 27.0014 32H24.4181C24.2397 32 24.0951 31.8576 24.0951 31.6818V30.6507C24.0951 30.5089 23.9997 30.3851 23.8632 30.3401C23.6272 30.2623 23.398 30.1699 23.1766 30.0641C23.0483 30.0028 22.8939 30.0245 22.7931 30.1237L22.6861 30.2292ZM28.9389 24.9079C28.9389 26.6652 27.4932 28.0897 25.7097 28.0897C23.9263 28.0897 22.4806 26.6652 22.4806 24.9079C22.4806 23.1506 23.9263 21.7261 25.7097 21.7261C27.4932 21.7261 28.9389 23.1506 28.9389 24.9079Z" fill="#130350"/>
<path d="M16.3263 22.1927C16.3399 22.1564 16.3397 22.1164 16.3256 22.0802L14.8811 18.3796C14.8283 18.2444 14.6347 18.2433 14.5803 18.3779L9.16979 31.7821C9.12763 31.8865 9.20573 32 9.31982 32H12.5216C12.5891 32 12.6495 31.9586 12.673 31.8962L16.3263 22.1927Z" fill="#130350"/>
</g>
<defs>
<clipPath id="clip0_143_12804">
<rect width="31" height="14" fill="white" transform="translate(9 18)"/>
</clipPath>
</defs>
</svg>
